<?xml version="1.0" standalone="no"?>
<!DOCTYPE svg PUBLIC "-//W3C//DTD SVG 20010904//EN"
 "http://www.w3.org/TR/2001/REC-SVG-20010904/DTD/svg10.dtd">
<svg version="1.0" xmlns="http://www.w3.org/2000/svg"
 width="500.000000pt" height="500.000000pt" viewBox="0 0 500.000000 500.000000"
 preserveAspectRatio="xMidYMid meet">
<metadata>
Created by potrace 1.11, written by Peter Selinger 2001-2013
</metadata>
<g transform="translate(0.000000,500.000000) scale(0.100000,-0.100000)"
fill="#000000" stroke="none">
<path d="M900 3270 l0 -130 195 0 196 0 -3 -372 -3 -373 -27 -57 c-36 -77 -72
-121 -140 -168 -48 -34 -155 -74 -185 -69 -31 5 -33 -2 -33 -132 l0 -131 58 6
c264 26 471 190 559 441 l28 80 3 518 3 517 -326 0 -325 0 0 -130z"/>
<path d="M2274 3126 c-196 -45 -355 -168 -443 -345 -117 -232 -83 -510 86
-716 70 -85 221 -178 333 -206 90 -22 262 -18 348 9 280 88 460 332 460 623 0
191 -73 353 -217 486 -65 60 -198 127 -292 149 -57 13 -217 13 -275 0z m298
-283 c152 -71 238 -219 225 -386 -11 -136 -93 -254 -222 -318 -64 -31 -77 -34
-165 -34 -86 0 -101 3 -160 31 -84 40 -150 107 -192 191 -31 63 -33 75 -32
163 0 84 4 103 30 160 19 39 50 85 80 114 86 84 168 115 290 112 66 -2 92 -8
146 -33z"/>
<path d="M3260 2490 l0 -650 130 0 130 0 0 467 0 468 468 -468 467 -467 131 0
131 0 0 650 0 650 -129 0 c-126 0 -128 0 -129 -22 0 -13 -1 -222 -1 -465 -1
-244 -2 -443 -4 -443 -2 0 -213 209 -469 465 l-465 465 -130 0 -130 0 0 -650z"/>
<path d="M410 2216 c-26 -13 -58 -41 -75 -65 -26 -37 -30 -51 -30 -111 0 -60
4 -73 31 -112 42 -58 93 -83 170 -83 73 0 127 31 165 92 29 47 33 140 7 193
-46 97 -169 137 -268 86z"/>
<path d="M1029 1670 c-93 -28 -139 -121 -99 -199 23 -45 62 -68 153 -91 97
-24 124 -38 135 -69 18 -51 -11 -85 -83 -97 -51 -8 -91 3 -128 35 -40 35 -71
43 -94 26 -17 -13 -17 -16 -3 -42 50 -90 227 -122 334 -59 100 59 95 190 -11
245 -12 6 -52 18 -90 27 -125 29 -159 59 -131 118 24 53 135 58 184 9 29 -29
89 -41 97 -20 14 36 -48 97 -118 116 -45 12 -108 13 -146 1z"/>
<path d="M1555 1667 c-52 -17 -96 -58 -120 -111 -33 -73 -33 -219 0 -292 39
-87 110 -125 223 -120 141 6 208 85 211 247 3 109 -12 168 -55 218 -54 63
-166 88 -259 58z m159 -82 c51 -34 61 -62 61 -175 0 -94 -2 -108 -23 -138 -31
-43 -57 -55 -115 -55 -92 2 -136 63 -137 190 0 139 53 205 157 197 18 -2 43
-10 57 -19z"/>
<path d="M1938 1658 c-2 -6 40 -116 94 -245 l98 -234 -19 -42 c-75 -168 -76
-177 -28 -177 17 0 37 4 43 8 5 4 75 159 154 345 99 233 140 341 133 348 -6 6
-25 9 -43 7 -33 -3 -34 -5 -111 -187 -43 -101 -79 -185 -82 -187 -2 -2 -23 45
-47 104 -24 59 -59 144 -78 190 l-34 82 -38 0 c-21 0 -40 -5 -42 -12z"/>
</g>
</svg>
